<?xml version="1.0" encoding="utf-8"?>
<!-- Generator: Adobe Illustrator 26.1.0, SVG Export Plug-In . SVG Version: 6.00 Build 0)  -->
<svg version="1.1" id="Layer_3" xmlns="http://www.w3.org/2000/svg" xmlns:xlink="http://www.w3.org/1999/xlink" x="0px" y="0px"
	 viewBox="0 0 283.7 311.2" style="enable-background:new 0 0 283.7 311.2;" xml:space="preserve">
<style type="text/css">
	.st0{fill:#F8C5D0;}
	.st1{fill:#FFFFFF;}
</style>
<path class="st0" d="M241.6,232.5c-8.1,9.4-17.8,17.1-28.6,23.1c-0.3,0.2-0.5,0.3-0.8,0.4c-32.7,17.8-74.9,20.3-111.9,8.8
	c-0.2-0.1-0.5-0.1-0.7-0.2c-3.7-1.2-7.4-2.5-11-3.9c-0.2-0.1-0.5-0.2-0.8-0.3c-7-2.9-13.8-6.3-20.2-10.3c-0.2-0.1-0.4-0.3-0.7-0.4
	c0,0,0,0,0,0c-5.1-3.2-10-6.8-14.5-10.7C0.7,194.5-5.1,116.5,39.3,64.8C83.8,13.1,155-11.1,206.7,33.4
	C258.4,77.8,286.1,180.8,241.6,232.5z"/>
<path class="st1" d="M115.5,221.1c-0.1-4.4-0.4-8.4-0.9-11.9c-0.5-3.5-1.2-6.4-2.1-8.9c0,0,0-0.1,0-0.1c0,0,0,0,0,0h0l-0.6,0.2
	c0,0,0,0,0,0c0,0-0.1,0-0.1,0.1c-2.1,1.3-14.1,9.2-25.3,20.3c-7.2,7.2-12.7,14.3-16.2,21.2c-1.3,2.6-2.4,5.1-3.2,7.6
	c-0.1,0.2-0.1,0.4-0.2,0.5c0,0.2-0.1,0.4-0.2,0.6c-0.3,1.1-0.6,2.3-0.8,3.4c-0.1,0.3-0.1,0.5-0.1,0.8c-0.5,3.5-0.5,6.8,0.1,10.1
	c0,0.1,0,0.2,0.1,0.3c-0.1,0-0.2,0.1-0.4,0.1c0,0.1,0,0.3,0.1,0.4c0,0,0.1,0,0.1,0c0.1,0,0.2-0.1,0.4-0.1c0.3,1.5,0.8,3,1.3,4.5
	c3.1,7.9,7.2,14.8,12.4,20.3c4.1,4.4,8.9,8.1,14.2,10.8c8.2,4.2,15.2,4.9,16.4,5c0,0,0-0.1-0.1-0.1c-0.2-0.3-0.4-0.7-0.6-1.1
	c-2.7-4.9-8.4-16.4-9.7-28.4c0-0.1,0-0.2,0-0.3c-0.4-3.6-0.5-7.2,0.1-10.7c0-0.2,0.1-0.5,0.1-0.8c0,0,0-0.1,0-0.1
	c0.1-0.8,0.3-1.5,0.5-2.3c1.8-6.8,6-12,12.5-15.7l0.5,0c0.1,0,0.3-0.1,0.3-0.3c0,0,0,0,0,0C114.6,243.1,115.7,232.2,115.5,221.1z
	 M210,125.3c-0.1-2.1-0.2-4.2-0.3-6.3c-0.1-1.9-0.2-4-0.2-5.9c0.7-9.7-0.4-18.8-3-27.1c-2.1-6.6-5.3-12.8-9.5-18.2
	c-7-9.1-14.4-13.2-14.8-13.4c-2.4-1.6-5-3.1-7.7-4.5c-1.3-0.6-2.5-1.2-3.8-1.8c-11.2-5-24-7-36.9-5.5c-11.4,1.2-22.8,5.1-32.2,10.8
	c-10.9,6.6-18,15.1-19.5,23.1c0,0.2-0.1,0.3-0.1,0.5c-0.1,0.4-0.1,0.8-0.2,1.1l0,0l0.5,0.3l0.1,0c0.2-0.3,0.4-0.5,0.7-0.7
	c0.1-0.1,0.1-0.1,0.2-0.2c0.2-0.2,0.4-0.3,0.6-0.4c0,0,0,0,0,0c0.2-0.1,0.4-0.2,0.6-0.2c0.1,0,0.2-0.1,0.4-0.1c0,0,0.1,0,0.1,0
	c0.1,0,0.1,0,0.2,0c0.1,0,0.1,0,0.2,0c0.2,0,0.3,0,0.5,0h0.2c0.1,0,0.2,0,0.2,0c0.1,0,0.2,0,0.3,0c0.1,0,0.1,0,0.2,0
	c0.7,0.2,1.6,0.5,2.5,1.3c0,0,0.1,0,0.1,0.1c1.8,1.4,4,4.3,6.2,9.6c7.1,17.2,38.4,32.9,53.3,32.9c0.6,0,1.3,0,1.8-0.1
	c0.7-0.1,1.7-0.2,2.7-0.3c0.3,0,0.5-0.1,0.8-0.1c1.8-0.2,3.3-0.4,3.4-0.4c4.5-0.6,7.8-1,10.2-0.4c0.9,0.2,1.6,0.6,2.3,1.1
	c0.5,0.5,1,1.1,1.3,1.8c0,0.1,0.1,0.2,0.1,0.4c0,0.1,0,0.2,0.1,0.2c0.1,0.1,0.1,0.3,0.1,0.5c0.3,1.1,0.4,2.5,0.4,4.2
	c0,0.4,0,0.8,0,1.2v0.1c0,0.1,0,0.2,0,0.3l0,0c0,0,0,0,0,0c0,0,0,0.1,0,0.1c0,0.2,0,0.3,0,0.5c0,0.1,0,0.2,0,0.3c0,0,0,0.1,0,0.1
	c0,0.3-0.1,0.6-0.1,0.9c0,0.3-0.1,0.5-0.1,0.8c0,0.4-0.1,0.8-0.1,1.2c0,0.4-0.1,0.8-0.2,1.2c-1.3,9.3-3.9,12.3-6.7,13.2c0,0,0,0,0,0
	c-0.8,0.3-1.5,0.5-2.4,0.5v0.1l-0.3,0c0,0.1,0,0.1,0,0.2c0,0.1,0,0.3,0,0.4c0.1,1.3,0.2,2.5,0.4,3.7v0c0.1,0.8,0.2,1.7,0.4,2.5
	c0.1,0.7,0.2,1.4,0.4,2c0.2,0.7,0.3,1.4,0.5,2.1c1.9,8.2,5,14.1,7.7,17.9c3.1,4.6,6,7.1,7.3,8.1c0,0,0,0,0,0
	c0.1,0.1,0.2,0.2,0.3,0.2c0,0,0.1,0.1,0.1,0.1c0,0,0.1,0.1,0.1,0.1c0,0,0,0,0.1,0.1l0.1,0c1.3-1.3,8.6-9.1,15.7-19.6
	c4.6-6.8,8.1-13.3,10.6-19.5c1.8-4.5,3.1-8.9,3.7-12.9c0-0.3,0.1-0.6,0.1-0.8C210,130.1,210.2,127.7,210,125.3z"/>
<g>
	<path d="M208.7,253.4c-26.2-13.3-32.8-31.2-33.7-43.8c-0.9-12.3,3.3-22.2,4.2-24.2c0,0,0-0.1,0-0.1c0,0,8.8-9.2,16-19.7
		c4.6-6.8,8.1-13.3,10.6-19.5c1.8-4.4,3-8.6,3.7-12.6c0-0.3,0.1-0.6,0.1-0.8c0.4-2.7,0.6-5.3,0.4-7.8c-0.1-2.1-0.2-4.2-0.3-6.3
		c-0.1-1.9-0.2-4-0.2-5.9c0.7-9.7-0.4-18.8-3-27.1c-2.1-6.6-5.3-12.8-9.5-18.2c-7-9.1-14.4-13.2-14.8-13.4c-2.4-1.6-5-3.1-7.7-4.5
		c-1.3-0.6-2.5-1.2-3.8-1.8c-11.2-5-24-7-36.9-5.5c-11.4,1.2-22.8,5.1-32.2,10.8c-11,6.7-18.2,15.4-19.6,23.5c0,0.2-0.1,0.3-0.1,0.5
		c0,0.2-0.1,0.5-0.1,0.8c0,0.1,0,0.3,0,0.4c0,0.1,0,0.3,0,0.4c0,0,0,0.1,0,0.1C79,82,76.6,90,76.3,103.1c-0.3,11.9-7.9,18-12.9,22
		c-2.1,1.6-3.7,2.9-4.4,4.3c-2.4,4.4,6.4,11.1,7.5,11.9c1,4-0.4,7.8-0.8,8.9c-0.4-0.1-0.7-0.1-1,0c-0.7,0.2-1.2,1-1.3,2.4
		c0,0.2,0,0.5,0,0.7c0,1.3,0.4,2.4,1.3,3.4c0.9,1,2.2,1.8,3.7,2.4c-1.4,0.1-2.6,0.3-3.5,1c-0.6,0.5-1,1.1-1,1.9
		c-0.1,2.5,1.6,4.9,4,5.6c0.3,0.1,0.8,0.2,1.4,0.2c0.1,0,0.2,0,0.3,0c0.6,0.6,2.3,2.7,2.5,5.6c0.1,1-0.3,2.4-0.6,3.8
		c-0.9,3.3-2,7.5,1.5,11.4c3.6,4.1,8,4,17.4,3.7c3.4-0.1,7.5-0.2,12.6-0.2c3.9,0,6.9,2.7,9,8c-1.7,1.1-13.9,8.9-25.2,20.2
		c-7.1,7.1-12.5,14.2-16.1,21c-1.5,2.9-2.7,5.8-3.5,8.6c0,0.1,0,0.1-0.1,0.2c0,0.2-0.1,0.4-0.2,0.6c-0.3,1.3-0.6,2.5-0.8,3.8
		c-0.1,0.3-0.1,0.5-0.1,0.8c-0.5,3.5-0.4,6.8,0.2,10.1c0,0-0.1,0-0.1,0c0,0.1,0,0.2,0.1,0.3c-0.1,0-0.2,0.1-0.4,0.1
		c0,0.1,0,0.3,0.1,0.4c0,0,0.1,0,0.1,0c0.1,0,0.2-0.1,0.4-0.1c0.3,1.5,0.8,3,1.3,4.5c3.1,7.9,7.2,14.8,12.4,20.3
		c4.1,4.4,8.9,8.1,14.2,10.8c8.2,4.2,15.2,4.9,16.4,5c0.1,0,0.2,0,0.2,0h0c0,0,0.1,0,0.1,0c0.1,0,0.2-0.1,0.2-0.2
		c0.1-0.1,0.1-0.3,0-0.4c0,0,0-0.1-0.1-0.2c-1.1-1.9-8.9-15.2-10.7-29.2c0-0.1,0-0.2,0-0.3c-0.4-3.4-0.5-6.9,0-10.3
		c0-0.2,0.1-0.5,0.1-0.8c0,0,0-0.1,0-0.1c0.1-0.8,0.3-1.5,0.5-2.3c1.8-6.8,6-12,12.5-15.7l0.5,0c0.1,0,0.3-0.1,0.3-0.3c0,0,0,0,0,0
		c0,0,0,0,0-0.1c0.4-3.2,1.7-14.4,1.5-25.8c-0.1-4.4-0.4-8.4-0.9-11.9c-0.5-3.5-1.2-6.4-2.1-8.9c0,0,0-0.1,0-0.1c0,0,0,0,0,0
		c-2.1-5.7-5.4-8.7-9.8-8.7c-5,0-9.2,0.1-12.6,0.2c-9.2,0.3-13.4,0.4-16.8-3.4c-3.2-3.6-2.2-7.4-1.3-10.7c0.4-1.5,0.8-2.9,0.7-4
		c-0.2-2.7-1.6-4.7-2.4-5.7c2-0.4,4.6-2,7.2-6.8c0,0,0-0.1,0-0.1h0c0,0,0.1,0,0.1,0c0.2,0,0.4-0.2,0.4-0.4c0-0.2-0.2-0.4-0.4-0.4
		h-0.2c-1.3-0.1-3.8-2.6-5.9-4.8c-2-2-3.8-3.9-5.2-4.7c0.5-1.2,2-5.2,0.8-9.5c0-0.1-0.1-0.2-0.2-0.2c-0.1-0.1-9.6-7-7.4-11
		c0.6-1.2,2.2-2.4,4.2-4c5.2-4.1,12.9-10.3,13.2-22.6c0.2-7.7,1.1-14.2,2.7-18.9c1.2-3.3,2.6-5.6,4.1-6.4c0,0,0,0,0,0
		c0.2-0.1,0.4-0.2,0.6-0.2c0.1,0,0.2-0.1,0.4-0.1c0,0,0.1,0,0.1,0c0.1,0,0.1,0,0.2,0c0.1,0,0.1,0,0.2,0c0.2,0,0.3,0,0.6,0h0.2
		c0.1,0,0.2,0,0.2,0c0.1,0,0.2,0,0.3,0c0.1,0,0.1,0,0.2,0c2.2,0.5,5.3,2.8,8.7,10.8c7,17,38,32.5,52.8,32.5c0.6,0,1.3,0,1.8-0.1
		c2.2-0.2,6.7-0.8,6.8-0.8c6.2-0.8,10.1-1.2,12.3,0.8c1.4,1.3,2.1,3.5,2.1,7c0,0.5,0,1-0.1,1.6l0,0c0,0,0,0,0,0c0,0.3,0,0.5-0.1,0.8
		c-1,11.5-3.5,15.6-6.4,17c0,0,0,0,0,0c-0.8,0.3-1.5,0.5-2.4,0.5c-0.2,0-0.5,0-0.7,0l-0.3,0.4c1,13.9,5.6,23.2,9.3,28.6
		c3.8,5.5,7.3,8.1,7.8,8.4c-0.9,2-5.1,12-4.3,24.6c0.6,8.2,3.2,15.8,7.8,22.7c5.7,8.5,14.6,15.9,26.3,21.8c1.3,0.7,2.6,1.3,3.8,1.9
		c0.3-0.1,0.5-0.3,0.8-0.4C211.6,254.9,210.2,254.1,208.7,253.4z M94.5,300.7c-8.2-4.2-19.3-12.9-26.2-30.6
		c-0.6-1.5-1.1-3.2-1.4-4.8c-1-5.1-0.6-10.2,0.8-15.1c3.2-11.3,11.7-21.8,19.4-29.5c11-10.9,22.8-18.6,24.9-20
		c0.1,0.3,0.2,0.6,0.3,0.9c0.1,0.3,0.2,0.6,0.3,0.9c0.6,2,1.1,4.3,1.4,6.9c0.1,0.8,0.2,1.6,0.3,2.4c0,0.3,0.1,0.6,0.1,0.9
		c0,0.2,0,0.5,0.1,0.7c0,0.2,0,0.3,0,0.5c0.1,0.7,0.1,1.5,0.2,2.3c0.1,1.4,0.1,2.9,0.2,4.5c-6.1,3.2-14.5,9-20.2,18
		c-4.2,6.6-6.5,13.9-6.7,21.9c-0.2,5,0.4,10.2,1.8,15.7c2.8,11.2,9.5,21.1,19.9,29.5C107.3,305.2,101.3,304.2,94.5,300.7z
		 M114,240.8c0,0.4-0.1,0.8-0.1,1.1c0,0.2,0,0.5-0.1,0.7c0,0.3-0.1,0.6-0.1,0.9c-0.1,1.1-0.2,2-0.3,2.6c0,0-0.3,0-0.4,0.1
		c-6.7,3.7-11.1,9.2-13,16.2c-0.2,0.7-0.4,1.5-0.5,2.2c-2.8,15.5,6.3,33.6,9.6,39.5c-9.8-8.1-16.1-17.6-18.8-28.3
		c-1.4-5.5-1.9-10.5-1.8-15.2c0.5-21.7,15.7-33.6,26.2-39.3c0,2.2,0,4.4-0.1,6.5c0,0.3,0,0.5,0,0.8c-0.1,3.1-0.3,6-0.5,8.6
		c0,0.3,0,0.5-0.1,0.8C114.1,239,114.1,239.9,114,240.8z M68,166.7c-2-0.6-3.6-2.7-3.5-4.8c0-0.6,0.3-1,0.7-1.3
		c0.8-0.6,2.2-0.8,3.8-0.8c0.6,0,1.3,0,2,0.1c1.6,0.4,3.1,0.5,4.3,0.7c0,0,0.1,0,0.1,0c0.5,0.1,0.9,0.2,1.2,0.3
		C72.9,167.3,69.4,167.1,68,166.7z M71.1,155.6c1.6,1.6,3.1,3.2,4.4,4.2h0c-1.2-0.2-2.7-0.5-4.3-0.7c-2.3-0.5-4.6-1.4-6-2.9
		c-0.9-1-1.2-2.2-1.1-3.5c0.1-0.7,0.3-1.6,0.8-1.8C66.1,150.4,68.7,153.2,71.1,155.6z M186.6,175.8c-4,5-7.6,8.6-7.6,8.6
		c0,0-3.8-2.6-7.7-8.3c-2.6-3.8-5.6-9.5-7.5-17.4c-0.2-0.7-0.3-1.4-0.5-2.1c-0.1-0.7-0.3-1.3-0.4-2c-0.1-0.8-0.3-1.6-0.4-2.5v0
		c-0.1-1.2-0.3-2.4-0.4-3.7c2.1-0.1,3.8-0.8,5.2-2.2C169.1,147.8,188.1,166.7,186.6,175.8z M194.6,165.1c-2.4,3.6-4.9,6.9-7.1,9.7
		c0-4.2-3.1-10.2-9.3-17.9c-4.7-5.8-9.6-10.7-10.3-11.4c0.2-0.2,0.3-0.4,0.5-0.7c1.5-2.3,2.6-5.9,3.3-11c0.1-0.4,0.1-0.8,0.2-1.2
		c0-0.4,0.1-0.8,0.1-1.2c0-0.1,0-0.3,0-0.4c0-0.3,0-0.6,0.1-0.9c0,0,0-0.1,0-0.1c0-0.1,0-0.2,0-0.3l0,0c0,0,0,0,0,0
		c1.9,1.3,7.3,5.2,12.6,10c8.7,8,13.2,15,13,20.5C196.7,162,195.6,163.6,194.6,165.1z M208.1,136.8c-21.8-5.1-43.5-29.5-57.9-49.1
		c-14.9-20.4-25.2-39.9-26.8-42.9c0.3-0.1,0.6-0.2,0.9-0.2c1.9,2.2,17.4,20.1,35.1,37.1c10.8,10.4,20.2,18.3,28,23.7
		c8,5.4,14.3,8.2,18.9,8.2c0.9,0,1.7-0.1,2.5-0.3c0.1,1.8,0.2,3.7,0.2,5.5c0.1,2.1,0.2,4.2,0.3,6.3
		C209.5,128.9,209,132.8,208.1,136.8z M120.8,110.9c-12.3-6.8-21.3-15.2-24.5-23c-2.1-5.1-4.4-8.5-6.8-10.2c0,0,0-0.1-0.1-0.1
		c-0.5-0.3-0.9-0.6-1.4-0.7c0,0-0.8-0.3-1.2-0.3h0c-0.2,0-0.3,0-0.4,0c-0.1,0-0.1,0-0.2,0h-0.1c-0.2,0-0.4,0-0.6,0
		c-0.2,0-0.3,0-0.4,0c-0.2,0-0.4,0.1-0.5,0.1c0,0,0,0-0.1,0c-0.1,0-0.1,0-0.2,0c-0.1,0-0.2,0.1-0.3,0.1c-0.1,0-0.2,0.1-0.3,0.1
		c-0.2,0.1-0.3,0.2-0.5,0.2c-0.2,0.1-0.5,0.3-0.6,0.4c0.9-8.2,8.1-17.1,19.4-24c1-0.6,2.2-1.3,3.3-1.9c2.1,8.4,13.6,46.9,47.8,67.8
		c-1.1,0.1-2.2,0.2-3,0.3C143.4,120.6,131.9,117.1,120.8,110.9z M170.5,48.4c1.2,0.6,2.5,1.2,3.8,1.8c2.7,1.4,5.3,2.9,7.6,4.4
		c0,0,0,0,0,0c0.1,0,7.5,4.1,14.5,13.2c6.5,8.4,13.8,23,12.4,44.6c-8.1,2.5-25-8.3-48.9-31.3c-17-16.4-32-33.6-34.8-36.8
		C139,41.3,155.1,41.4,170.5,48.4z M171.4,122.3c-0.4-0.9-0.9-1.7-1.5-2.2c-0.6-0.5-1.2-0.8-2-1.1c-2.7-1-6.6-0.4-10.9,0.1
		c0,0-1.1,0.1-2.5,0.3c-34.9-20.8-46.3-60-48.4-68.1c4.8-2.5,10.4-4.7,16.6-6.3c1.2,2.4,11.7,22.3,26.9,43.1
		c9.3,12.7,18.5,23.2,27.3,31.2c10.9,9.8,21.3,16,31,18.2c-2,7.6-5.6,15.1-9.5,21.5c-0.2-2.9-1.6-6.1-4-9.6
		c-2.2-3.2-5.3-6.6-9.2-10.2c-5.7-5.2-11.5-9.3-13.1-10.4c0,0,0,0,0,0v-0.1c0-0.4,0-0.8,0-1.1c0-1.7-0.1-3.1-0.4-4.3
		c-0.1-0.2-0.1-0.3-0.1-0.5c0-0.1,0-0.2-0.1-0.2C171.5,122.5,171.4,122.4,171.4,122.3z"/>
	<path d="M107.6,127.8l0-0.8c0,0-1.6,0-3.8,0c-1.1,0-2.2-0.1-3.2-0.1c-1.1-0.1-2.2-0.2-3.2-0.2c-1.3-0.2-2.5-0.3-3.5-0.5
		c-1.4-0.3-2.5-0.6-3.4-1c0,0,0,0,0,0c-1.1-0.5-1.8-1-2-1.7c-0.1-0.2-0.1-0.4-0.1-0.5c0.1-3.3,1.5-5.9,4.1-7.8
		c2-1.4,3.9-1.9,3.9-1.9l-0.2-0.8c-0.1,0-2.1,0.5-4.2,2c-2,1.4-4.3,4-4.5,8.4c0,0.2,0,0.4,0.1,0.6l-3.9,4.4l0.6,0.5l3.7-4.2
		c0.4,0.5,1,1,1.8,1.4l-2.2,4l0.7,0.4l2.2-4c0.8,0.3,1.7,0.6,2.8,0.8l-1.8,4.1l0.7,0.3l1.9-4.3c0.8,0.2,1.8,0.3,2.8,0.4l-1.2,5
		l0.7,0.2l1.3-5.1c0.8,0.1,1.6,0.2,2.5,0.2l-0.4,5l0.8,0.1l0.4-5.1c0.8,0,1.7,0.1,2.5,0.1l0.4,4l0.8-0.1l-0.4-3.9c0.5,0,1,0,1.4,0
		C106.8,127.8,107.6,127.8,107.6,127.8z"/>
</g>
</svg>
