<?xml version="1.0" encoding="utf-8"?>
<!-- Generator: Adobe Illustrator 23.0.5, SVG Export Plug-In . SVG Version: 6.00 Build 0)  -->
<svg version="1.1" id="Layer_1" xmlns="http://www.w3.org/2000/svg" xmlns:xlink="http://www.w3.org/1999/xlink" x="0px" y="0px"
	 viewBox="0 0 319 89" style="enable-background:new 0 0 319 89;" xml:space="preserve">
<style type="text/css">
	.st0{fill:#FFFFFF;}
	.st1{fill:#1A1A1A;}
</style>
<path class="st0" d="M22.5,68C9.5,56.8,8,37.2,19.2,24.1S48.4,5,61.4,16.2s20,37.2,8.8,50.2S35.6,79.2,22.5,68z"/>
<path class="st1" d="M32.5,63.3V25.5h12.1c2,0,3.8,0.2,5.4,0.5c1.6,0.3,3.1,0.8,4.3,1.6c1.2,0.7,2.2,1.7,2.8,2.9
	c0.7,1.2,1,2.7,1,4.4c0,1.8-0.5,3.5-1.4,5c-0.9,1.5-2.2,2.6-3.9,3.2v0.2c2.1,0.5,3.8,1.4,5.2,2.9c1.4,1.5,2.1,3.5,2.1,6
	c0,1.9-0.4,3.5-1.1,4.9c-0.7,1.4-1.7,2.5-3,3.5c-1.3,0.9-2.8,1.6-4.6,2.1c-1.8,0.4-3.7,0.7-5.8,0.7H32.5z M39.2,41.1H44
	c2.7,0,4.6-0.5,5.7-1.4c1.2-1,1.8-2.3,1.8-3.9c0-1.8-0.6-3.2-1.8-3.9c-1.2-0.8-3.1-1.2-5.5-1.2h-4.9V41.1z M39.2,58.1h5.7
	c2.8,0,4.9-0.5,6.4-1.5c1.5-1,2.3-2.6,2.3-4.7c0-2-0.7-3.5-2.2-4.4c-1.5-0.9-3.6-1.4-6.5-1.4h-5.7V58.1z M75.9,64
	c-1.2,0-2.3-0.4-3.1-1.3c-0.8-0.8-1.2-1.9-1.2-3.2c0-1.3,0.4-2.4,1.2-3.2c0.8-0.8,1.9-1.3,3.1-1.3c1.2,0,2.3,0.4,3.1,1.3
	c0.8,0.8,1.2,1.9,1.2,3.2c0,1.3-0.4,2.4-1.2,3.2C78.2,63.5,77.2,64,75.9,64z M122.8,64c-2.5,0-5-0.5-7.4-1.4c-2.4-1-4.5-2.3-6.3-4.1
	l3.9-4.6c1.3,1.3,2.9,2.3,4.6,3.1c1.7,0.8,3.5,1.2,5.2,1.2c2.2,0,3.8-0.4,4.9-1.3c1.1-0.9,1.7-2.1,1.7-3.5c0-0.8-0.1-1.4-0.4-2
	c-0.3-0.5-0.7-1-1.2-1.4c-0.5-0.4-1.1-0.8-1.8-1.1c-0.7-0.3-1.5-0.7-2.3-1l-5.2-2.3c-0.9-0.4-1.8-0.9-2.7-1.4
	c-0.9-0.6-1.7-1.3-2.5-2.1c-0.7-0.8-1.3-1.8-1.8-2.8c-0.4-1.1-0.7-2.3-0.7-3.7c0-1.5,0.3-2.9,1-4.2c0.6-1.3,1.5-2.4,2.6-3.4
	c1.1-1,2.5-1.7,4-2.3c1.6-0.5,3.3-0.8,5.1-0.8c2.2,0,4.3,0.4,6.4,1.3c2,0.9,3.8,2,5.3,3.5l-3.4,4.3c-1.2-1-2.5-1.8-3.8-2.4
	c-1.3-0.6-2.8-0.9-4.4-0.9c-1.8,0-3.3,0.4-4.3,1.2c-1.1,0.8-1.6,1.9-1.6,3.3c0,0.7,0.2,1.4,0.5,1.9c0.3,0.5,0.8,1,1.3,1.4
	c0.6,0.4,1.2,0.8,1.9,1.1c0.7,0.3,1.5,0.6,2.3,1l5.1,2.1c1.1,0.5,2.1,1,3.1,1.6c0.9,0.6,1.7,1.3,2.4,2.1c0.7,0.8,1.2,1.7,1.6,2.8
	c0.4,1.1,0.6,2.3,0.6,3.7c0,1.5-0.3,3-0.9,4.3c-0.6,1.3-1.5,2.5-2.7,3.6c-1.2,1-2.6,1.8-4.3,2.4C126.8,63.7,124.9,64,122.8,64z
	 M154.4,63.3v-14l-11.3-23.7h7.2l4.1,9.6c0.5,1.4,1.1,2.8,1.6,4.1s1.1,2.7,1.7,4.2h0.2c0.6-1.5,1.2-2.9,1.8-4.2
	c0.6-1.3,1.1-2.7,1.7-4.1l4.1-9.6h7l-11.4,23.7v14H154.4z M182.8,63.3V25.5h6.7v32.1h15.7v5.7H182.8z M219.8,63.3l-11.8-37.8h7.1
	l5.3,19c0.6,2.2,1.2,4.2,1.6,6.1c0.5,1.9,1,4,1.7,6.2h0.2c0.7-2.2,1.2-4.3,1.7-6.2c0.5-1.9,1-4,1.6-6.1l5.3-19h6.9l-11.7,37.8H219.8
	z M249.8,63.3V25.5h6.7v37.8H249.8z M267,63.3l12.3-37.8h7.9l12.3,37.8h-7L289.4,53h-12.7l-2.9,10.2H267z M279.6,43.2l-1.3,4.6h9.6
	l-1.3-4.6c-0.6-2-1.2-4.1-1.8-6.2c-0.6-2.1-1.1-4.2-1.6-6.3H283c-0.5,2.1-1.1,4.2-1.6,6.3C280.8,39.1,280.2,41.2,279.6,43.2z M3,3
	v82.7h313V3H3z M5.5,5.5h86.7v77.6H5.5V5.5z M313.5,83.2H94.8V5.5h218.7V83.2z"/>
</svg>
